Music_Title:
	channel_count 4
	channel 1, Music_Title_Ch1
	channel 2, Music_Title_Ch2
	channel 3, Music_Title_Ch3
	channel 4, Music_Title_Ch4

Music_Title_Ch1:
	tempo 256
	volume 7, 7
	note_type 12, 15, 8
.mainLoop:
	octave 3
	duty_cycle 0
	volume_envelope 6, 8
	note C_, 12
	note D#, 3
	note C_, 12
	note_type 12, 15, 8
	note C_, 12
	note D#, 3
	note F_, 3
	note G#, 1
	note F_, 1
	note F_, 5
	note G_, 3
	rest 16
	rest 16
	rest 16
	rest 11
	note D#, 2
	note F_, 2
	sound_loop 0, .mainLoop

Music_Title_Ch2:
	note_type 12, 15, 8
.mainLoop:
	duty_cycle 1
	volume_envelope 8, 8
	octave 2
	note F_, 3
	note A_, 1
	octave 3
	note C_, 8
	octave 2
	note A_, 3
	octave 3
	note C_, 7
	octave 2
	note A#, 3
	note G_, 2
	note F_, 3
	note A_, 1
	octave 3
	note C_, 8
	note D#, 3
	note F_, 3
	note G#, 1
	note F_, 1
	rest 12
	octave 4
	note D#, 1
	note D#, 3
	rest 8
	octave 3
	note F_, 1
	note D#, 1
	note C_, 1
	note G#, 1
	note D#, 1
	note C_, 1
	note B_, 1
	rest 16
	rest 16
	octave 8
	rest 2
	note_type 12, 8, 8
	rest 5
	note_type 1, 8, 8
	rest 12
	note_type 12, 8, 8
	sound_loop 0, .mainLoop

Music_Title_Ch3:
	note_type 12, 1, 0
.mainLoop:
	octave 3
	volume_envelope 1, 5
	note F_, 3
	note A_, 1
	octave 4
	note C_, 8
	note_type 12, 1, 5
	note D#, 2
	note_type 6, 1, 5
	note D_, 1
	note C#, 1
	note_type 12, 1, 5
	note C_, 12
	octave 3
	note F_, 3
	note A_, 1
	octave 4
	note C_, 8
	note D#, 1
	note D_, 1
	note D#, 1
	note F_, 3
	note G#, 1
	note F_, 1
	note F_, 5
	note G_, 3
	volume_envelope 1, 4
	octave 5
	note G#, 3
	note D#, 1
	note D#, 4
	note G#, 2
	note A_, 2
	note A#, 3
	note F_, 1
	note F_, 4
	note A#, 2
	note B_, 2
	octave 6
	note C_, 1
	rest 14
	octave 5
	note A#, 2
	note B_, 2
	octave 6
	note C_, 1
	rest 15
	octave 4
	volume_envelope 1, 5
	note A#, 2
	note A_, 2
	octave 5
	sound_loop 0, .mainLoop

Music_Title_Ch4:
	toggle_noise 0
	drum_speed 12
.mainLoop:
	octave 2
	drum_note 3, 1
	drum_note 2, 1
	rest 1
	drum_note 3, 1
	drum_note 3, 1
	drum_note 2, 1
	rest 1
	drum_note 3, 1
	drum_note 3, 1
	drum_note 2, 1
	rest 1
	drum_note 3, 1
	drum_note 3, 1
	drum_note 2, 1
	rest 1
	drum_note 3, 1
	drum_note 3, 1
	drum_note 2, 1
	rest 1
	drum_note 3, 1
	drum_note 3, 1
	drum_note 2, 1
	rest 1
	drum_note 3, 1
	drum_note 3, 1
	drum_note 2, 1
	rest 1
	drum_note 3, 1
	drum_note 2, 1
	rest 1
	drum_note 3, 1
	drum_note 3, 1
	drum_note 2, 1
	rest 1
	drum_note 3, 1
	drum_note 3, 1
	drum_note 2, 1
	rest 1
	drum_note 3, 1
	drum_note 3, 1
	drum_note 2, 1
	rest 1
	drum_note 3, 1
	drum_note 3, 1
	drum_note 2, 1
	rest 1
	drum_note 3, 1
	drum_note 3, 1
	drum_note 2, 1
	rest 1
	drum_note 3, 1
	drum_note 3, 1
	drum_note 2, 1
	rest 1
	drum_note 3, 1
	drum_note 3, 1
	drum_note 2, 1
	rest 1
	drum_note 4, 1
	drum_note 4, 1
	rest 2
	drum_note 4, 1
	drum_note 4, 1
	rest 2
	drum_note 4, 1
	drum_note 4, 1
	rest 2
	drum_note 4, 1
	drum_note 4, 1
	rest 2
	drum_note 4, 1
	drum_note 4, 1
	rest 2
	drum_note 4, 1
	drum_note 4, 1
	rest 2
	drum_note 4, 1
	drum_note 4, 1
	rest 2
	drum_note 4, 1
	drum_note 4, 1
	rest 2
	drum_note 4, 1
	drum_note 4, 1
	rest 2
	drum_note 4, 1
	drum_note 4, 1
	rest 2
	drum_note 4, 1
	drum_note 4, 1
	rest 2
	drum_note 4, 1
	drum_note 4, 1
	rest 2
	drum_note 4, 1
	drum_note 4, 1
	rest 2
	drum_note 4, 1
	drum_note 4, 1
	drum_speed 12
	rest 2
	drum_note 4, 1
	drum_note 4, 1
	octave 8
	rest 1
	drum_speed 1
	rest 12
	drum_speed 12
	sound_loop 0, .mainLoop
